<svg xmlns="http://www.w3.org/2000/svg" viewBox="0 0 400 400">
  <g transform="translate(-570, -330)">
    <path fill="#00dfba" d="M874.89,400.12a18.09,18.09,0,0,0-18.07,18.06v86.39a4,4,0,1,1-8,0V375.72a21.2,21.2,0,0,0-21.18-21.18,21,21,0,0,0-15.28,6.29,21.44,21.44,0,0,0-5.9,15V504.57a4,4,0,0,1-8,0V377.4a22.89,22.89,0,0,0-22.86-22.86c-14.31,0-22.86,12.36-22.86,24.3V504.57a4,4,0,0,1-8,0v-103a21.2,21.2,0,0,0-21.18-21.18c-13.26,0-21.18,11.45-21.18,22.53V559.21h47a64.49,64.49,0,0,1,48.85,22.37,4,4,0,0,1-.41,5.64,4,4,0,0,1-5.64-.41,56.51,56.51,0,0,0-42.8-19.6h-51a4.53,4.53,0,0,1-.53-.05l-.21,0a4.43,4.43,0,0,1-.95-.32l-.21-.11a4.64,4.64,0,0,1-.74-.51l-.1-.08-19.83-18.63a37.67,37.67,0,0,0-52.56.73,9.8,9.8,0,0,0-.3,13.64l75.11,81.49c30.13,33.4,60.75,47,105.69,47,49.19,0,89.21-40.43,89.21-90.14V419.07C893,409.88,886.63,400.12,874.89,400.12Z"/>
  </g>
</svg>