<svg xmlns="http://www.w3.org/2000/svg" viewBox="0 0 400 400">
  <g transform="translate(-150, -350)">
    <path fill="#fe2bf1" d="M394.37,513.1V459.7a26.59,26.59,0,0,0-53.18,0v51.93h46.9A14.26,14.26,0,0,1,394.37,513.1Z"/>
    <path fill="#fe2bf1" d="M271.35,511.63V457.68a22.22,22.22,0,0,0-44.44,0v66.48a56.21,56.21,0,0,1,35.42-12.53Z"/>
    <path fill="#fe2bf1" d="M427.1,567.16a32.72,32.72,0,0,1-28.31-16.37,49.65,49.65,0,0,1-46,31.11H319.55a54.64,54.64,0,0,1,26.2,46.63v15a4,4,0,0,1-8,0v-15a46.69,46.69,0,0,0-46.63-46.63h-.71a4,4,0,0,1-4-4h0a4,4,0,0,1,4-4H352.8a41.61,41.61,0,0,0,41.57-41.56v-6.43a6.28,6.28,0,0,0-6.28-6.28H262.33a48.4,48.4,0,0,0-36.94,17.13c-.67.79-1.33,1.59-1.94,2.42-.26.34-.5.69-.74,1-.61.86-1.2,1.73-1.75,2.63-.18.29-.35.59-.52.89-.56,1-1.09,1.94-1.59,2.93l-.24.49c-.56,1.16-1.06,2.34-1.52,3.54-.06.16-.13.31-.19.47-.45,1.21-.85,2.45-1.21,3.7,0,.16-.09.32-.13.48-.35,1.26-.64,2.53-.88,3.81l-.09.5c-.23,1.29-.41,2.6-.53,3.91,0,.15,0,.3,0,.46-.11,1.36-.18,2.72-.18,4.09,0,3.3.16,6.55.42,9.78,5,62.85,57.71,112.46,121.82,112.46h14.54A101.33,101.33,0,0,0,451.84,589.15V555.81A32.65,32.65,0,0,1,427.1,567.16Z"/>
    <path fill="#fe2bf1" d="M333.19,460a26.92,26.92,0,0,0-53.84,0v51.6h53.84Z"/>
    <path fill="#fe2bf1" d="M427.1,472.09a24.76,24.76,0,0,0-24.73,24.74v37.6a24.74,24.74,0,0,0,49.47,0v-37.6A24.77,24.77,0,0,0,427.1,472.09Z"/>
  </g>
</svg>